<svg width="77" height="37" viewBox="0 0 77 37" fill="none" xmlns="http://www.w3.org/2000/svg">
<path d="M19.4674 7.9527L25.4887 18.3819H13.4461L19.4674 7.9527Z" fill="white"/>
<path d="M9.73402 20.4677L15.7553 30.8968H3.71274L9.73402 20.4677Z" fill="white"/>
<path d="M34.9943 7.05061L28.8844 17.4281L22.9522 6.94802L34.9943 7.05061Z" fill="white"/>
<path d="M34.997 30.5576L22.9553 30.7011L28.8519 20.201L34.997 30.5576Z" fill="white"/>
<path d="M13.2402 19.5185L25.2826 19.5795L19.2086 29.978L13.2402 19.5185Z" fill="white"/>
<path d="M3.50682 7.00354L15.5492 7.06449L9.47523 17.463L3.50682 7.00354Z" fill="white"/>
<path d="M50.8963 28.9999H55.5092V21.9261H59.3871C64.4048 21.9261 67.3239 18.9325 67.3239 14.5752C67.3239 10.2393 64.4581 7.18176 59.5043 7.18176H50.8963V28.9999ZM55.5092 18.2293V10.9531H58.62C61.2834 10.9531 62.5724 12.4019 62.5724 14.5752C62.5724 16.7379 61.2834 18.2293 58.6413 18.2293H55.5092ZM71.8622 29.2769C73.2259 29.2769 74.4084 28.137 74.419 26.7201C74.4084 25.3245 73.2259 24.1846 71.8622 24.1846C70.456 24.1846 69.2947 25.3245 69.3054 26.7201C69.2947 28.137 70.456 29.2769 71.8622 29.2769Z" fill="white"/>
</svg>
